<?xml version="1.0" encoding="UTF-8" standalone="no"?>
<!-- Created with Inkscape (http://www.inkscape.org/) -->

<svg
   xmlns:dc="http://purl.org/dc/elements/1.1/"
   xmlns:cc="http://creativecommons.org/ns#"
   xmlns:rdf="http://www.w3.org/1999/02/22-rdf-syntax-ns#"
   xmlns:svg="http://www.w3.org/2000/svg"
   xmlns="http://www.w3.org/2000/svg"
   xmlns:sodipodi="http://sodipodi.sourceforge.net/DTD/sodipodi-0.dtd"
   xmlns:inkscape="http://www.inkscape.org/namespaces/inkscape"
   width="210mm"
   height="297mm"
   viewBox="0 0 210 297"
   version="1.1"
   id="svg8"
   inkscape:version="0.92.4 (5da689c313, 2019-01-14)"
   sodipodi:docname="Menschen.svg">
  <defs
     id="defs2" />
  <sodipodi:namedview
     id="base"
     pagecolor="#ffffff"
     bordercolor="#666666"
     borderopacity="1.0"
     inkscape:pageopacity="0.0"
     inkscape:pageshadow="2"
     inkscape:zoom="0.35"
     inkscape:cx="857.03552"
     inkscape:cy="1176.6541"
     inkscape:document-units="mm"
     inkscape:current-layer="layer1"
     showgrid="false"
     inkscape:snap-global="false"
     inkscape:window-width="1920"
     inkscape:window-height="1017"
     inkscape:window-x="255"
     inkscape:window-y="1432"
     inkscape:window-maximized="1" />
  <metadata
     id="metadata5">
    <rdf:RDF>
      <cc:Work
         rdf:about="">
        <dc:format>image/svg+xml</dc:format>
        <dc:type
           rdf:resource="http://purl.org/dc/dcmitype/StillImage" />
        <dc:title></dc:title>
      </cc:Work>
    </rdf:RDF>
  </metadata>
  <g
     inkscape:label="Ebene 1"
     inkscape:groupmode="layer"
     id="layer1">
    <g
       id="g1071"
       transform="translate(1.6174318e-6)">
      <path
         inkscape:connector-curvature="0"
         id="path815"
         transform="scale(0.26458333)"
         d="m 372.74609,229.54492 a 61.619301,61.619301 0 0 0 -61.61914,61.61914 61.619301,61.619301 0 0 0 61.61914,61.61914 61.619301,61.619301 0 0 0 61.61914,-61.61914 61.619301,61.619301 0 0 0 -61.61914,-61.61914 z M 238.39453,377.02734 v 222.23438 h 42.42774 V 377.02734 Z m 54.54883,0 V 764.92578 H 363.6543 V 597.24023 h 18.18359 v 167.68555 h 77.78125 V 377.02734 Z m 177.78711,0 v 222.23438 h 42.42578 V 377.02734 Z"
         style="opacity:1;fill:#ffffff;fill-opacity:1;stroke:#000000;stroke-width:7.55905533;stroke-linecap:round;stroke-linejoin:round;stroke-miterlimit:4;stroke-dasharray:none;stroke-dashoffset:0;stroke-opacity:1;paint-order:normal" />
      <path
         inkscape:connector-curvature="0"
         id="rect836"
         d="m 106.96239,109.10959 v 5.66732 h -5.66731 v 4.1671 h 5.66731 v 5.667 h 4.1671 v -5.667 h 5.66732 v -4.1671 h -5.66732 v -5.66732 z"
         style="opacity:1;fill:#ff0000;fill-opacity:1;stroke:none;stroke-width:0.5;stroke-linecap:round;stroke-linejoin:round;stroke-miterlimit:4;stroke-dasharray:none;stroke-dashoffset:0;stroke-opacity:1;paint-order:normal" />
    </g>
    <g
       id="g1067"
       transform="translate(-4.2918779)">
      <path
         style="opacity:1;fill:#000000;fill-opacity:1;stroke:none;stroke-width:2;stroke-linecap:round;stroke-linejoin:round;stroke-miterlimit:4;stroke-dasharray:none;stroke-dashoffset:0;stroke-opacity:1;paint-order:normal"
         d="m 194.62835,60.733759 a 16.30344,16.30344 0 0 0 -16.30339,16.303398 16.30344,16.30344 0 0 0 16.30339,16.303397 16.30344,16.30344 0 0 0 16.3034,-16.303397 16.30344,16.30344 0 0 0 -16.3034,-16.303398 z m -35.54718,39.02139 v 58.799511 h 11.22567 V 99.755149 Z m 14.43271,0 V 202.38661 h 18.70894 v -44.3668 h 4.81107 v 44.3668 h 20.57963 V 99.755149 Z m 47.03951,0 v 58.799511 h 11.22515 V 99.755149 Z"
         id="path862"
         inkscape:connector-curvature="0" />
      <path
         sodipodi:nodetypes="ccccccccc"
         inkscape:connector-curvature="0"
         id="rect855"
         d="m 193.25692,108.50293 c -2.48145,2.48152 -2.48145,6.50478 -0.81415,8.17212 0.28763,0.28526 10.54012,10.54015 10.54012,10.54015 l 10.48308,-10.48312 c 1.61049,-1.61052 1.61039,-5.63396 -0.87126,-8.11545 -2.48153,-2.48144 -6.50479,-2.48144 -8.98631,1e-5 -0.23385,0.23559 -0.44888,0.48915 -0.64311,0.75835 -0.21426,-0.3116 -0.45591,-0.60344 -0.72206,-0.87206 -2.48153,-2.48145 -6.50479,-2.48145 -8.98631,0 z"
         style="opacity:1;fill:#ff0000;fill-opacity:1;stroke:none;stroke-width:2;stroke-linecap:round;stroke-linejoin:round;stroke-miterlimit:4;stroke-dasharray:none;stroke-dashoffset:0;stroke-opacity:1;paint-order:normal" />
    </g>
    <g
       id="g1063"
       transform="translate(-3.914119)">
      <path
         inkscape:connector-curvature="0"
         id="path874"
         d="m 284.96466,60.733759 a 16.30344,16.30344 0 0 0 -16.30339,16.303398 16.30344,16.30344 0 0 0 16.30339,16.303397 16.30344,16.30344 0 0 0 16.3034,-16.303397 16.30344,16.30344 0 0 0 -16.3034,-16.303398 z m -35.54718,39.02139 v 58.799511 h 11.22567 V 99.755149 Z m 14.43271,0 V 202.38661 h 18.70894 v -44.3668 h 4.81107 v 44.3668 h 20.57963 V 99.755149 Z m 47.03951,0 v 58.799511 h 11.22515 V 99.755149 Z"
         style="opacity:1;fill:#000000;fill-opacity:1;stroke:none;stroke-width:2;stroke-linecap:round;stroke-linejoin:round;stroke-miterlimit:4;stroke-dasharray:none;stroke-dashoffset:0;stroke-opacity:1;paint-order:normal" />
      <path
         inkscape:connector-curvature="0"
         id="rect878"
         d="m 272.15489,160.31425 a 2.3032922,2.3032922 0 0 0 -2.30374,2.30321 2.3032922,2.3032922 0 0 0 1.72496,2.22777 v 26.2568 a 2.3032922,2.3032922 0 0 0 -1.72496,2.22622 2.3032922,2.3032922 0 0 0 2.30374,2.30322 2.3032922,2.3032922 0 0 0 1.44177,-0.50798 2.3032922,2.3032922 0 0 0 1.44022,0.50798 2.3032922,2.3032922 0 0 0 2.30322,-2.30322 2.3032922,2.3032922 0 0 0 -1.60662,-2.19263 v -26.32346 a 2.3032922,2.3032922 0 0 0 1.60662,-2.1947 2.3032922,2.3032922 0 0 0 -2.30322,-2.30321 2.3032922,2.3032922 0 0 0 -1.44229,0.50797 2.3032922,2.3032922 0 0 0 -1.4397,-0.50797 z"
         style="opacity:1;fill:#ff0000;fill-opacity:1;stroke:none;stroke-width:2;stroke-linecap:round;stroke-linejoin:round;stroke-miterlimit:4;stroke-dasharray:none;stroke-dashoffset:0;stroke-opacity:1;paint-order:normal" />
    </g>
    <g
       id="g1059"
       transform="translate(-3.5363601)">
      <path
         style="opacity:1;fill:#000000;fill-opacity:1;stroke:none;stroke-width:2;stroke-linecap:round;stroke-linejoin:round;stroke-miterlimit:4;stroke-dasharray:none;stroke-dashoffset:0;stroke-opacity:1;paint-order:normal"
         d="m 375.30097,60.733759 a 16.30344,16.30344 0 0 0 -16.30339,16.303398 16.30344,16.30344 0 0 0 16.30339,16.303397 16.30344,16.30344 0 0 0 16.3034,-16.303397 16.30344,16.30344 0 0 0 -16.3034,-16.303398 z m -35.54718,39.02139 v 58.799511 h 11.22567 V 99.755149 Z m 14.43271,0 V 202.38661 h 18.70894 v -44.3668 h 4.81107 v 44.3668 h 20.57963 V 99.755149 Z m 47.03951,0 v 58.799511 h 11.22515 V 99.755149 Z"
         id="path888"
         inkscape:connector-curvature="0" />
      <path
         sodipodi:nodetypes="sssss"
         inkscape:connector-curvature="0"
         id="path894"
         d="m 361.34839,110.98137 c 2.01121,-2.1364 9.00614,-2.4376 8.15173,0 -2.37491,6.77551 0.61572,13.29243 0.40091,19.31967 -0.21955,6.16017 -11.06667,4.27249 -12.2944,0 -1.8701,-6.50796 -0.58298,-14.72575 3.74176,-19.31967 z"
         style="fill:#ff0000;stroke:#000000;stroke-width:0.26458332px;stroke-linecap:butt;stroke-linejoin:miter;stroke-opacity:1" />
    </g>
    <g
       id="g1055"
       transform="translate(-7.4357013)">
      <path
         inkscape:connector-curvature="0"
         id="path896"
         d="m 469.91438,60.733759 a 16.30344,16.30344 0 0 0 -16.30339,16.303398 16.30344,16.30344 0 0 0 16.30339,16.303397 16.30344,16.30344 0 0 0 16.3034,-16.303397 16.30344,16.30344 0 0 0 -16.3034,-16.303398 z m -35.54718,39.02139 v 58.799511 h 11.22567 V 99.755149 Z m 14.43271,0 V 202.38661 h 18.70894 v -44.3668 h 4.81107 v 44.3668 h 20.57963 V 99.755149 Z m 47.03951,0 v 58.799511 h 11.22515 V 99.755149 Z"
         style="opacity:1;fill:#000000;fill-opacity:1;stroke:none;stroke-width:2;stroke-linecap:round;stroke-linejoin:round;stroke-miterlimit:4;stroke-dasharray:none;stroke-dashoffset:0;stroke-opacity:1;paint-order:normal" />
      <path
         sodipodi:nodetypes="sssss"
         inkscape:connector-curvature="0"
         id="path924"
         d="m 478.32014,141.76287 c -0.9742,-0.90673 -1.11155,-4.06031 0,-3.67511 3.08963,1.0707 6.06135,-0.27759 8.80977,-0.18075 2.80904,0.099 1.94826,4.98928 0,5.54279 -2.96763,0.84312 -6.71494,0.26283 -8.80977,-1.68693 z"
         style="fill:#ff0000;stroke:#000000;stroke-width:0.26458332px;stroke-linecap:butt;stroke-linejoin:miter;stroke-opacity:1" />
    </g>
    <g
       id="g1051"
       transform="translate(-3.5842324)">
      <path
         style="opacity:1;fill:#000000;fill-opacity:1;stroke:none;stroke-width:2;stroke-linecap:round;stroke-linejoin:round;stroke-miterlimit:4;stroke-dasharray:none;stroke-dashoffset:0;stroke-opacity:1;paint-order:normal"
         d="m 556.77698,60.733759 a 16.30344,16.30344 0 0 0 -16.30339,16.303398 16.30344,16.30344 0 0 0 16.30339,16.303397 16.30344,16.30344 0 0 0 16.3034,-16.303397 16.30344,16.30344 0 0 0 -16.3034,-16.303398 z m -35.54718,39.02139 v 58.799511 h 11.22567 V 99.755149 Z m 14.43271,0 V 202.38661 h 18.70894 v -44.3668 h 4.81107 v 44.3668 h 20.57963 V 99.755149 Z m 47.03951,0 v 58.799511 h 11.22515 V 99.755149 Z"
         id="path926"
         inkscape:connector-curvature="0" />
      <path
         inkscape:connector-curvature="0"
         id="path956"
         transform="scale(0.26458333)"
         d="m 2097.5,242.51953 a 9.2857145,9.1071425 0 0 0 -7.7285,4.06641 9.2857145,9.1071425 0 0 0 -1.5586,-0.13867 9.2857145,9.1071425 0 0 0 -9.0977,7.29296 9.2857145,9.1071425 0 0 0 -1.6152,-0.14843 9.2857145,9.1071425 0 0 0 -8.9707,6.79882 9.2857145,9.1071425 0 0 0 -5.6738,8.37891 9.2857145,9.1071425 0 0 0 0.3554,2.48438 9.2857145,9.1071425 0 0 0 -4.6406,7.87304 9.2857145,9.1071425 0 0 0 8.1387,9.02735 9.2857145,9.1071425 0 0 0 6.4863,5.5332 9.2857145,9.1071425 0 0 0 8.2324,4.9043 9.2857145,9.1071425 0 0 0 6.4356,-2.54492 9.2857145,9.1071425 0 0 0 6.4219,2.54492 9.2857145,9.1071425 0 0 0 8.8027,-6.23438 9.2857145,9.1071425 0 0 0 6.5547,2.66211 9.2857145,9.1071425 0 0 0 9.2851,-9.10742 9.2857145,9.1071425 0 0 0 -0.2675,-2.12891 9.2857145,9.1071425 0 0 0 1.8828,-2.26367 9.2857145,9.1071425 0 0 0 3.9336,1.86328 9.2857145,9.1071425 0 0 0 8.3808,5.20899 9.2857145,9.1071425 0 0 0 1.5625,-0.13086 9.2857145,9.1071425 0 0 0 7.7227,4.05859 9.2857145,9.1071425 0 0 0 9.2851,-9.10742 9.2857145,9.1071425 0 0 0 -2.5429,-6.25195 9.2857145,9.1071425 0 0 0 2.9004,-6.60547 9.2857145,9.1071425 0 0 0 -9.2852,-9.10742 9.2857145,9.1071425 0 0 0 -1.0898,0.0742 9.2857145,9.1071425 0 0 0 -9.2676,-8.64453 9.2857145,9.1071425 0 0 0 -1.2793,0.0977 9.2857145,9.1071425 0 0 0 -9.0781,-7.24023 9.2857145,9.1071425 0 0 0 -3.6114,0.72656 9.2857145,9.1071425 0 0 0 -6.3886,-2.51367 9.2857145,9.1071425 0 0 0 -6.5469,2.65625 9.2857145,9.1071425 0 0 0 -7.7383,-4.08399 z"
         style="opacity:1;fill:#ff0000;fill-opacity:1;stroke:none;stroke-width:7.55905533;stroke-linecap:round;stroke-linejoin:round;stroke-miterlimit:4;stroke-dasharray:none;stroke-dashoffset:0;stroke-opacity:1;paint-order:normal" />
    </g>
    <g
       id="g1047"
       transform="translate(-3.3566081e-5)">
      <path
         inkscape:connector-curvature="0"
         id="path1005"
         d="m 643.90685,60.733759 a 16.30344,16.30344 0 0 0 -16.30339,16.303398 16.30344,16.30344 0 0 0 16.30339,16.303397 16.30344,16.30344 0 0 0 16.3034,-16.303397 16.30344,16.30344 0 0 0 -16.3034,-16.303398 z m -35.54718,39.02139 v 58.799511 h 11.22567 V 99.755149 Z m 14.43271,0 V 202.38661 h 18.70894 v -44.3668 h 4.81107 v 44.3668 h 20.57963 V 99.755149 Z m 47.03951,0 v 58.799511 h 11.22515 V 99.755149 Z"
         style="opacity:1;fill:#000000;fill-opacity:1;stroke:none;stroke-width:2;stroke-linecap:round;stroke-linejoin:round;stroke-miterlimit:4;stroke-dasharray:none;stroke-dashoffset:0;stroke-opacity:1;paint-order:normal" />
      <path
         style="opacity:1;fill:#37c837;fill-opacity:1;stroke:none;stroke-width:2;stroke-linecap:round;stroke-linejoin:round;stroke-miterlimit:4;stroke-dasharray:none;stroke-dashoffset:0;stroke-opacity:1;paint-order:normal"
         d="m 642.53542,108.50293 c -2.48145,2.48152 -2.48145,6.50478 -0.81415,8.17212 0.28763,0.28526 10.54012,10.54015 10.54012,10.54015 l 10.48308,-10.48312 c 1.61049,-1.61052 1.61039,-5.63396 -0.87126,-8.11545 -2.48153,-2.48144 -6.50479,-2.48144 -8.98631,1e-5 -0.23385,0.23559 -0.44888,0.48915 -0.64311,0.75835 -0.21426,-0.3116 -0.45591,-0.60344 -0.72206,-0.87206 -2.48153,-2.48145 -6.50479,-2.48145 -8.98631,0 z"
         id="path1007"
         inkscape:connector-curvature="0"
         sodipodi:nodetypes="ccccccccc" />
      <path
         inkscape:connector-curvature="0"
         id="path1009"
         d="m 631.09708,160.31425 a 2.3032922,2.3032922 0 0 0 -2.30374,2.30321 2.3032922,2.3032922 0 0 0 1.72496,2.22777 v 26.2568 a 2.3032922,2.3032922 0 0 0 -1.72496,2.22622 2.3032922,2.3032922 0 0 0 2.30374,2.30322 2.3032922,2.3032922 0 0 0 1.44177,-0.50798 2.3032922,2.3032922 0 0 0 1.44022,0.50798 2.3032922,2.3032922 0 0 0 2.30322,-2.30322 2.3032922,2.3032922 0 0 0 -1.60662,-2.19263 v -26.32346 a 2.3032922,2.3032922 0 0 0 1.60662,-2.1947 2.3032922,2.3032922 0 0 0 -2.30322,-2.30321 2.3032922,2.3032922 0 0 0 -1.44229,0.50797 2.3032922,2.3032922 0 0 0 -1.4397,-0.50797 z"
         style="opacity:1;fill:#37c837;fill-opacity:1;stroke:none;stroke-width:2;stroke-linecap:round;stroke-linejoin:round;stroke-miterlimit:4;stroke-dasharray:none;stroke-dashoffset:0;stroke-opacity:1;paint-order:normal" />
      <path
         style="fill:#37c837;stroke:#000000;stroke-width:0.26458332px;stroke-linecap:butt;stroke-linejoin:miter;stroke-opacity:1"
         d="m 629.95427,110.98137 c 2.01121,-2.1364 9.00614,-2.4376 8.15173,0 -2.37491,6.77551 0.61572,13.29243 0.40091,19.31967 -0.21955,6.16017 -11.06667,4.27249 -12.2944,0 -1.8701,-6.50796 -0.58298,-14.72575 3.74176,-19.31967 z"
         id="path1011"
         inkscape:connector-curvature="0"
         sodipodi:nodetypes="sssss" />
      <path
         sodipodi:nodetypes="sssss"
         inkscape:connector-curvature="0"
         id="path1013"
         d="m 652.31261,141.76287 c -0.9742,-0.90673 -1.11155,-4.06031 0,-3.67511 3.08963,1.0707 6.06135,-0.27759 8.80977,-0.18075 2.80904,0.099 1.94826,4.98928 0,5.54279 -2.96763,0.84312 -6.71494,0.26283 -8.80977,-1.68693 z"
         style="fill:#37c837;stroke:#000000;stroke-width:0.26458332px;stroke-linecap:butt;stroke-linejoin:miter;stroke-opacity:1" />
      <path
         style="opacity:1;fill:#37c837;fill-opacity:1;stroke:none;stroke-width:2;stroke-linecap:round;stroke-linejoin:round;stroke-miterlimit:4;stroke-dasharray:none;stroke-dashoffset:0;stroke-opacity:1;paint-order:normal"
         d="m 642.0934,64.166625 a 2.4568453,2.4095981 0 0 0 -2.04483,1.075904 2.4568453,2.4095981 0 0 0 -0.41238,-0.03669 2.4568453,2.4095981 0 0 0 -2.4071,1.929596 2.4568453,2.4095981 0 0 0 -0.42736,-0.03927 2.4568453,2.4095981 0 0 0 -2.37349,1.798854 2.4568453,2.4095981 0 0 0 -1.5012,2.21692 2.4568453,2.4095981 0 0 0 0.094,0.657326 2.4568453,2.4095981 0 0 0 -1.22783,2.083075 2.4568453,2.4095981 0 0 0 2.15337,2.388486 2.4568453,2.4095981 0 0 0 1.71616,1.463993 2.4568453,2.4095981 0 0 0 2.17816,1.297596 2.4568453,2.4095981 0 0 0 1.70275,-0.673344 2.4568453,2.4095981 0 0 0 1.69913,0.673344 2.4568453,2.4095981 0 0 0 2.32905,-1.649513 2.4568453,2.4095981 0 0 0 1.73426,0.70435 2.4568453,2.4095981 0 0 0 2.45668,-2.409672 2.4568453,2.4095981 0 0 0 -0.0708,-0.563274 2.4568453,2.4095981 0 0 0 0.49815,-0.598929 2.4568453,2.4095981 0 0 0 1.04077,0.492993 2.4568453,2.4095981 0 0 0 2.21742,1.378211 2.4568453,2.4095981 0 0 0 0.41341,-0.03462 2.4568453,2.4095981 0 0 0 2.0433,1.073835 2.4568453,2.4095981 0 0 0 2.45668,-2.409671 2.4568453,2.4095981 0 0 0 -0.67281,-1.654162 2.4568453,2.4095981 0 0 0 0.7674,-1.747697 2.4568453,2.4095981 0 0 0 -2.45671,-2.409672 2.4568453,2.4095981 0 0 0 -0.28834,0.01963 2.4568453,2.4095981 0 0 0 -2.45205,-2.287198 2.4568453,2.4095981 0 0 0 -0.33849,0.02585 2.4568453,2.4095981 0 0 0 -2.40191,-1.915645 2.4568453,2.4095981 0 0 0 -0.95552,0.192236 2.4568453,2.4095981 0 0 0 -1.69031,-0.665075 2.4568453,2.4095981 0 0 0 -1.7322,0.702799 2.4568453,2.4095981 0 0 0 -2.04743,-1.080555 z"
         id="path1015"
         inkscape:connector-curvature="0" />
    </g>
  </g>
</svg>
